<svg width="30" height="30" viewBox="0 0 30 30" fill="none" xmlns="http://www.w3.org/2000/svg">
<path d="M15.5 2.5C13.8585 2.5 12.233 2.82332 10.7165 3.45151C9.19989 4.07969 7.8219 5.00043 6.66117 6.16117C4.31696 8.50537 3 11.6848 3 15C3 18.3152 4.31696 21.4946 6.66117 23.8388C7.8219 24.9996 9.19989 25.9203 10.7165 26.5485C12.233 27.1767 13.8585 27.5 15.5 27.5C18.8152 27.5 21.9946 26.183 24.3388 23.8388C26.683 21.4946 28 18.3152 28 15C28 13.3585 27.6767 11.733 27.0485 10.2165C26.4203 8.69989 25.4996 7.3219 24.3388 6.16117C23.1781 5.00043 21.8001 4.07969 20.2835 3.45151C18.767 2.82332 17.1415 2.5 15.5 2.5ZM9.3375 22.85C10.5 24 13.15 25 15.5 25C17.85 25 19.875 24.2743 21.6625 22.85C19.9117 24.245 17.7386 25.0032 15.5 25C13.175 25 11.0375 24.2 9.3375 22.85ZM23.45 21.0375C21.6625 18.8625 17.325 18.125 15.5 18.125C13.675 18.125 9.3375 18.8625 7.55 21.0375C6.22023 19.3058 5.49958 17.1834 5.5 15C5.5 9.4875 9.9875 5 15.5 5C21.0125 5 25.5 9.4875 25.5 15C25.5 17.275 24.725 19.375 23.45 21.0375ZM15.5 7.5C13.075 7.5 11.125 9.45 11.125 11.875C11.125 14.3 13.075 16.25 15.5 16.25C17.925 16.25 19.875 14.3 19.875 11.875C19.875 9.45 17.925 7.5 15.5 7.5Z" fill="white"/>
</svg>
