<svg width="12" height="12" viewBox="0 0 12 12" fill="none" xmlns="http://www.w3.org/2000/svg">
<path d="M10.2929 11.7071C10.6834 12.0976 11.3166 12.0976 11.7071 11.7071C12.0976 11.3165 12.0976 10.6834 11.7071 10.2929L10.2929 11.7071ZM1.70763 0.293381C1.31711 -0.0971432 0.683945 -0.0971433 0.293421 0.293381C-0.0971041 0.683905 -0.0971041 1.31707 0.293421 1.70759L1.70763 0.293381ZM11.7071 10.2929L1.70763 0.293381L0.293421 1.70759L10.2929 11.7071L11.7071 10.2929Z" fill="#1E81CE"/>
<path d="M0.293421 10.2924C-0.097104 10.6829 -0.0971041 11.3161 0.293421 11.7066C0.683945 12.0971 1.31711 12.0971 1.70763 11.7066L0.293421 10.2924ZM11.7071 1.70715C12.0976 1.31662 12.0976 0.683457 11.7071 0.292933C11.3166 -0.0975923 10.6834 -0.0975924 10.2929 0.292932L11.7071 1.70715ZM1.70763 11.7066L11.7071 1.70715L10.2929 0.292932L0.293421 10.2924L1.70763 11.7066Z" fill="#1E81CE"/>
</svg>
