<svg width="40" height="40" viewBox="0 0 40 40" fill="none" xmlns="http://www.w3.org/2000/svg">
<g clip-path="url(#clip0_24_45)">
<circle cx="20" cy="20" r="20" fill="#8692A6"/>
<path fill-rule="evenodd" clip-rule="evenodd" d="M31.4495 13.948C31.6155 13.402 31.4495 13 30.6545 13H28.0296C27.3616 13 27.0536 13.347 26.8866 13.73C26.8866 13.73 25.5516 16.926 23.6607 19.002C23.0487 19.604 22.7707 19.795 22.4367 19.795C22.2697 19.795 22.0187 19.604 22.0187 19.057V13.948C22.0187 13.292 21.8347 13 21.2787 13H17.1508C16.7338 13 16.4828 13.304 16.4828 13.593C16.4828 14.214 17.4288 14.358 17.5258 16.106V19.904C17.5258 20.737 17.3728 20.888 17.0388 20.888C16.1488 20.888 13.9839 17.677 12.6989 14.003C12.4499 13.288 12.1979 13 11.5269 13H8.89998C8.15 13 8 13.347 8 13.73C8 14.412 8.88998 17.8 12.1449 22.281C14.3149 25.341 17.3698 27 20.1527 27C21.8217 27 22.0277 26.632 22.0277 25.997V23.684C22.0277 22.947 22.1857 22.8 22.7147 22.8C23.1047 22.8 23.7717 22.992 25.3296 24.467C27.1096 26.216 27.4026 27 28.4046 27H31.0295C31.7795 27 32.1555 26.632 31.9395 25.904C31.7015 25.18 30.8515 24.129 29.7245 22.882C29.1126 22.172 28.1946 21.407 27.9156 21.024C27.5266 20.533 27.6376 20.314 27.9156 19.877C27.9156 19.877 31.1155 15.451 31.4485 13.948H31.4495Z" fill="white"/>
</g>
<defs>
<clipPath id="clip0_24_45">
<rect width="40" height="40" fill="white"/>
</clipPath>
</defs>
</svg>
