<svg width="140" height="42" viewBox="0 0 140 42" fill="none" xmlns="http://www.w3.org/2000/svg">
<path d="M50.6074 17.8497V7.15886H52.7912V11.5699H57.2245V7.15886H59.4036V17.8497H57.2245V13.4335H52.7912V17.8497H50.6074ZM62.9843 17.8497H60.6444L64.2103 7.15886H67.0245L70.5854 17.8497H68.2449L65.6575 9.60189H65.5768L62.9843 17.8497ZM62.8382 13.6475H68.3662V15.4119H62.8382V13.6475ZM71.8286 17.8497V7.15886H75.9642C76.7241 7.15886 77.3581 7.27541 77.8659 7.50861C78.3736 7.74176 78.7551 8.06543 79.0107 8.47955C79.2664 8.8902 79.3942 9.36349 79.3942 9.89941C79.3942 10.317 79.3136 10.6842 79.1517 11.0009C78.9904 11.3141 78.7688 11.5716 78.4862 11.7734C78.2073 11.9718 77.8877 12.1128 77.5281 12.1963V12.3007C77.9212 12.3181 78.2894 12.433 78.6323 12.6452C78.9788 12.8575 79.2593 13.1551 79.4749 13.5379C79.6899 13.9172 79.7975 14.3696 79.7975 14.8952C79.7975 15.4624 79.6615 15.9687 79.3891 16.4142C79.1198 16.8562 78.7216 17.2059 78.1936 17.4635C77.6655 17.721 77.0152 17.8497 76.2417 17.8497H71.8286ZM74.0123 16.0018H75.7928C76.4015 16.0018 76.8453 15.8817 77.1243 15.6416C77.4033 15.398 77.5428 15.0743 77.5428 14.6707C77.5428 14.3749 77.4743 14.1138 77.3363 13.8876C77.1983 13.6615 77.0015 13.484 76.7459 13.3552C76.4938 13.2264 76.193 13.162 75.8435 13.162H74.0123V16.0018ZM74.0123 11.6325H75.6315C75.9307 11.6325 76.1965 11.5786 76.4283 11.4707C76.6637 11.3593 76.8489 11.2027 76.9833 11.0009C77.1212 10.799 77.1897 10.5572 77.1897 10.2753C77.1897 9.88896 77.0573 9.57753 76.7915 9.34086C76.5293 9.10424 76.156 8.98591 75.672 8.98591H74.0123V11.6325ZM81.2188 7.15886H83.3974V13.8824H83.4831L87.9469 7.15886H89.8582V17.8497H87.6745V11.1209H87.5989L83.1098 17.8497H81.2188V7.15886ZM98.5169 7.15886V9.02245H93.8467V17.8497H91.6625V7.15886H98.5169ZM100.434 17.8497H98.0933L101.659 7.15886H104.473L108.034 17.8497H105.694L103.106 9.60189H103.026L100.434 17.8497ZM100.287 13.6475H105.815V15.4119H100.287V13.6475ZM107.622 9.02245V7.15886H116.106V9.02245H112.943V17.8497H110.784V9.02245H107.622ZM126.523 12.5043C126.523 13.6701 126.309 14.6619 125.882 15.4798C125.459 16.2976 124.881 16.9223 124.148 17.3538C123.418 17.7819 122.597 17.9959 121.686 17.9959C120.768 17.9959 119.944 17.7801 119.215 17.3486C118.485 16.9171 117.908 16.2924 117.485 15.4746C117.061 14.6567 116.849 13.6667 116.849 12.5043C116.849 11.3384 117.061 10.3466 117.485 9.52881C117.908 8.71097 118.485 8.088 119.215 7.65997C119.944 7.22842 120.768 7.0127 121.686 7.0127C122.597 7.0127 123.418 7.22842 124.148 7.65997C124.881 8.088 125.459 8.71097 125.882 9.52881C126.309 10.3466 126.523 11.3384 126.523 12.5043ZM124.309 12.5043C124.309 11.7491 124.2 11.1123 123.981 10.5937C123.766 10.0752 123.462 9.6819 123.068 9.41394C122.675 9.14598 122.214 9.012 121.686 9.012C121.158 9.012 120.698 9.14598 120.304 9.41394C119.911 9.6819 119.605 10.0752 119.387 10.5937C119.171 11.1123 119.063 11.7491 119.063 12.5043C119.063 13.2595 119.171 13.8963 119.387 14.4149C119.605 14.9334 119.911 15.3266 120.304 15.5946C120.698 15.8626 121.158 15.9966 121.686 15.9966C122.214 15.9966 122.675 15.8626 123.068 15.5946C123.462 15.3266 123.766 14.9334 123.981 14.4149C124.2 13.8963 124.309 13.2595 124.309 12.5043ZM128.141 17.8497V7.15886H132.216C133 7.15886 133.667 7.31368 134.218 7.62343C134.77 7.92966 135.19 8.35601 135.479 8.90238C135.772 9.44528 135.918 10.0717 135.918 10.7816C135.918 11.4916 135.77 12.118 135.474 12.6609C135.179 13.2038 134.75 13.6266 134.188 13.9294C133.63 14.2322 132.954 14.3835 132.161 14.3835H129.563V12.5721H131.807C132.228 12.5721 132.574 12.4973 132.846 12.3477C133.122 12.1946 133.327 11.984 133.462 11.7161C133.6 11.4446 133.669 11.1331 133.669 10.7816C133.669 10.4267 133.6 10.1169 133.462 9.85242C133.327 9.58446 133.122 9.3774 132.846 9.23124C132.571 9.08162 132.221 9.00675 131.797 9.00675H130.325V17.8497H128.141ZM56.8562 34.6497L53.5378 30.0925H52.7912V34.6497H50.6074V23.9589H52.7912V28.2289H53.2299L56.6599 23.9589H59.3783L55.3482 28.918L59.5649 34.6497H56.8562ZM62.4436 34.6497H60.1031L63.6691 23.9589H66.4838L70.0441 34.6497H67.7042L65.1167 26.4019H65.0361L62.4436 34.6497ZM62.2975 30.4475H67.8249V32.2119H62.2975V30.4475ZM71.2874 34.6497V23.9589H75.3631C76.1463 23.9589 76.8138 24.1137 77.3652 24.4234C77.9166 24.7297 78.3371 25.156 78.6262 25.7024C78.9184 26.2453 79.065 26.8717 79.065 27.5816C79.065 28.2916 78.9169 28.918 78.6212 29.4609C78.3249 30.0038 77.8963 30.4266 77.3348 30.7294C76.7768 31.0322 76.1012 31.1835 75.3073 31.1835H72.7097V29.3721H74.9543C75.3748 29.3721 75.7207 29.2973 75.9931 29.1477C76.2691 28.9946 76.474 28.784 76.6084 28.5161C76.7464 28.2446 76.8154 27.9331 76.8154 27.5816C76.8154 27.2267 76.7464 26.9169 76.6084 26.6524C76.474 26.3845 76.2691 26.1774 75.9931 26.0312C75.7177 25.8816 75.3677 25.8068 74.9441 25.8068H73.4716V34.6497H71.2874ZM81.9208 27.9105H84.382C85.2027 27.9105 85.9088 28.048 86.5007 28.3229C87.0957 28.5943 87.5548 28.9789 87.8774 29.4766C88.2 29.9742 88.3598 30.5606 88.3568 31.2358C88.3598 31.9074 88.2 32.5008 87.8774 33.0158C87.5548 33.5274 87.0957 33.9276 86.5007 34.2165C85.9088 34.5053 85.2027 34.6497 84.382 34.6497H80.5239V23.9589H82.7025V32.8331H84.382C84.7756 32.8331 85.1068 32.7601 85.3757 32.6139C85.645 32.4642 85.8484 32.2676 85.9859 32.024C86.1274 31.7769 86.1964 31.5072 86.1928 31.2149C86.1964 30.7903 86.0417 30.4318 85.7287 30.1395C85.4193 29.8437 84.9704 29.6958 84.382 29.6958H81.9208V27.9105ZM90.0956 34.6497V23.9589H97.0555V25.8225H92.2793V28.3699H96.6974V30.2335H92.2793V32.7862H97.0758V34.6497H90.0956ZM98.7918 34.6497V23.9589H102.867C103.651 23.9589 104.318 24.1137 104.87 24.4234C105.421 24.7297 105.841 25.156 106.13 25.7024C106.423 26.2453 106.569 26.8717 106.569 27.5816C106.569 28.2916 106.421 28.918 106.125 29.4609C105.829 30.0038 105.401 30.4266 104.839 30.7294C104.281 31.0322 103.605 31.1835 102.812 31.1835H100.214V29.3721H102.459C102.879 29.3721 103.225 29.2973 103.498 29.1477C103.773 28.9946 103.978 28.784 104.113 28.5161C104.251 28.2446 104.32 27.9331 104.32 27.5816C104.32 27.2267 104.251 26.9169 104.113 26.6524C103.978 26.3845 103.773 26.1774 103.498 26.0312C103.222 25.8816 102.872 25.8068 102.449 25.8068H100.976V34.6497H98.7918ZM109.425 27.9105H111.886C112.707 27.9105 113.413 28.048 114.005 28.3229C114.6 28.5943 115.059 28.9789 115.382 29.4766C115.704 29.9742 115.864 30.5606 115.861 31.2358C115.864 31.9074 115.704 32.5008 115.382 33.0158C115.059 33.5274 114.6 33.9276 114.005 34.2165C113.413 34.5053 112.707 34.6497 111.886 34.6497H108.028V23.9589H110.207V32.8331H111.886C112.28 32.8331 112.611 32.7601 112.88 32.6139C113.149 32.4642 113.352 32.2676 113.49 32.024C113.631 31.7769 113.7 31.5072 113.697 31.2149C113.7 30.7903 113.546 30.4318 113.233 30.1395C112.924 29.8437 112.475 29.6958 111.886 29.6958H109.425V27.9105ZM118.882 23.9589V34.6497H116.703V23.9589H118.882Z" fill="white"/>
<path d="M29.8904 16.4722C29.7627 16.8289 29.6221 17.1799 29.5092 17.5423C29.0595 18.9807 28.906 20.4382 29.0818 21.9552C29.3982 24.7016 30.7563 26.8131 32.6493 28.6465C33.6466 29.613 34.5885 30.641 35.5506 31.644C36.1946 32.3152 36.5406 33.1475 36.5054 34.0777C36.4259 36.2026 34.7365 37.6525 32.7418 37.3629C32.0146 37.2574 31.4077 36.9142 30.8896 36.3771C29.611 35.0462 28.3157 33.7306 27.0482 32.39C25.9713 31.2489 25.2478 29.8911 24.8241 28.353C24.3874 26.769 24.3393 25.1714 24.6982 23.5777C25.1257 21.6848 26.0138 20.0412 27.385 18.6969C28.077 18.018 28.7894 17.3602 29.4944 16.6947C29.5999 16.595 29.7164 16.5125 29.8293 16.4204C29.8497 16.4396 29.87 16.455 29.8904 16.4722Z" fill="white"/>
<path d="M35.8433 6.54178C35.1587 4.24041 32.3517 3.44452 30.6512 5.09768C29.6168 6.10262 28.6324 7.16123 27.6333 8.20451C26.7599 9.11738 25.8754 10.0092 24.7689 10.6267C23.5291 11.3171 22.2191 11.7314 20.8072 11.81C19.6248 11.8771 18.4703 11.764 17.3471 11.3747C16.8456 11.2002 16.3571 10.9873 15.8612 10.7897L15.815 10.8454C16.5385 11.6566 17.2545 12.4774 17.9873 13.2791C20.1966 15.6993 22.8889 16.7944 26.103 16.3955C27.9534 16.1653 29.6076 15.427 30.9676 14.1076C32.3813 12.7382 33.7561 11.3229 35.0902 9.87112C35.9433 8.94481 36.219 7.80373 35.8433 6.54178ZM20.6666 9.88451C23.4514 9.66396 25.2 7.24371 25.0446 4.72178C24.941 1.91219 22.5614 -0.105343 20.0172 0.0768492C17.2638 0.274384 15.3246 2.72918 15.6003 5.46396C15.8872 8.26783 18.1372 10.084 20.6666 9.88451Z" fill="white"/>
<path d="M24.994 30.3414C23.9504 30.0097 22.9882 29.6069 21.9872 29.4171C21.21 29.2694 20.3829 29.325 19.5873 29.3979C18.4807 29.4976 17.4261 29.8371 16.4194 30.3472C15.2334 30.9513 14.2601 31.8239 13.346 32.7943C12.3264 33.8779 11.2884 34.9423 10.2503 36.0086C8.59979 37.7039 5.55966 37.0499 4.92682 34.4973C4.63077 33.3045 4.89352 32.2324 5.68363 31.3771C7.09732 29.8467 8.5517 28.3508 10.0542 26.9124C11.2292 25.7886 12.6743 25.1634 14.2545 24.8776C16.5693 24.4576 18.7398 24.8623 20.7419 26.1281C21.3063 26.4847 21.8318 26.9335 22.3036 27.4149C23.2251 28.3565 24.0948 29.3576 24.994 30.3414Z" fill="white"/>
<path d="M20.4915 31.9565C23.1375 31.9105 25.3394 34.162 25.308 36.985C25.2766 39.7467 23.1856 41.9349 20.4693 41.9368C17.8196 41.9407 15.6694 39.7179 15.6602 36.9255C15.6528 34.2004 17.8769 31.8683 20.4915 31.9565Z" fill="white"/>
<path d="M40.5802 20.8465C40.6246 23.5314 38.4967 25.8462 35.7582 25.8347C33.0918 25.8232 30.9528 23.6139 30.9509 20.8561C30.9491 18.0944 33.0825 15.864 35.7674 15.8506C38.4153 15.8372 40.6339 18.1117 40.5802 20.8465Z" fill="white"/>
<path d="M10.908 25.2996C11.2281 24.218 11.6167 23.2207 11.7999 22.1832C11.9424 21.3777 11.8887 20.5204 11.8184 19.6958C11.7222 18.5489 11.3946 17.4539 10.9025 16.4125C10.3196 15.1831 9.47766 14.1744 8.54321 13.227C7.49778 12.1703 6.4708 11.0944 5.44201 10.0185C3.8063 8.30779 4.43727 5.15685 6.90009 4.50096C8.05103 4.19411 9.08541 4.46644 9.91064 5.28536C11.3872 6.75053 12.8305 8.25796 14.2183 9.81522C15.3026 11.033 15.9058 12.5308 16.1815 14.1686C16.5868 16.5678 16.1963 18.8174 14.9751 20.8925C14.6309 21.4774 14.1979 22.0221 13.7335 22.5111C12.8213 23.4643 11.8573 24.3675 10.908 25.2996Z" fill="white"/>
<path d="M9.74651 21.0382C9.79089 23.7806 7.61856 26.0628 4.89484 26.0302C2.23031 25.9976 0.119043 23.8305 0.117192 21.0152C0.113491 18.2689 2.25992 16.0404 4.9522 16.0308C7.58158 16.0231 9.83162 18.3283 9.74651 21.0382Z" fill="white"/>
</svg>
