<svg width="40" height="40" viewBox="0 0 40 40" fill="none" xmlns="http://www.w3.org/2000/svg">
<g clip-path="url(#clip0_24_51)">
<circle cx="20" cy="20" r="20" fill="#8692A6"/>
<path d="M20.0161 29H19.9901C19.9096 29 11.8523 28.9846 9.81951 28.4386C9.27025 28.2923 8.76949 28.0058 8.36737 27.6079C7.96524 27.21 7.67587 26.7146 7.52821 26.1713C7.16267 24.1318 6.98615 22.0635 7.00085 19.9923C6.99141 17.9177 7.17271 15.8465 7.5425 13.8043C7.69433 13.2601 7.98504 12.7636 8.38674 12.3626C8.78843 11.9615 9.28762 11.6692 9.8364 11.5138C11.8134 11 19.6485 11 19.981 11H20.0083C20.0901 11 28.1681 11.0154 30.1802 11.5614C31.2959 11.8607 32.1675 12.7227 32.4689 13.8261C32.8455 15.8738 33.0235 17.951 32.9975 20.0321C33.0066 22.1042 32.8249 24.1729 32.4546 26.2124C32.305 26.7551 32.0144 27.2496 31.6118 27.6469C31.2092 28.0442 30.7085 28.3305 30.1594 28.4772C28.185 28.9949 20.3486 29 20.0161 29ZM17.4182 16.1449L17.4117 23.8526L24.1817 19.9987L17.4182 16.1449Z" fill="white"/>
</g>
<defs>
<clipPath id="clip0_24_51">
<rect width="40" height="40" fill="white"/>
</clipPath>
</defs>
</svg>
